<?xml version="1.0" encoding="UTF-8" standalone="no"?>
<!-- Created with Inkscape (http://www.inkscape.org/) -->

<svg
   width="22"
   height="22"
   viewBox="0 0 5.8208332 5.8208331"
   version="1.1"
   id="svg1"
   inkscape:version="1.4.2 (ebf0e940d0, 2025-05-08)"
   xml:space="preserve"
   xmlns:inkscape="http://www.inkscape.org/namespaces/inkscape"
   xmlns:sodipodi="http://sodipodi.sourceforge.net/DTD/sodipodi-0.dtd"
   xmlns:xlink="http://www.w3.org/1999/xlink"
   xmlns="http://www.w3.org/2000/svg"
   xmlns:svg="http://www.w3.org/2000/svg"
   xmlns:rdf="http://www.w3.org/1999/02/22-rdf-syntax-ns#"
   xmlns:cc="http://creativecommons.org/ns#"><sodipodi:namedview
     id="namedview1"
     pagecolor="#ffffff"
     bordercolor="#89dceb"
     borderopacity="1"
     inkscape:showpageshadow="0"
     inkscape:pageopacity="0"
     inkscape:pagecheckerboard="false"
     inkscape:deskcolor="#dfe0e6"
     inkscape:document-units="px"
     showguides="true"
     inkscape:lockguides="false"
     showborder="false"
     borderlayer="true"><inkscape:page
       x="0"
       y="0"
       width="5.8208332"
       height="5.8208332"
       id="page2"
       margin="0"
       bleed="0" /></sodipodi:namedview><defs
     id="defs1"><linearGradient
       id="linearGradient1"
       inkscape:collect="always"><stop
         style="stop-color:#53cd86;stop-opacity:1"
         offset="0"
         id="stop1" /><stop
         style="stop-color:#7881f3;stop-opacity:1"
         offset="1"
         id="stop2" /></linearGradient><radialGradient
       inkscape:collect="always"
       xlink:href="#linearGradient1"
       id="radialGradient2"
       cx="42.467018"
       cy="50.681732"
       fx="42.467018"
       fy="50.681732"
       r="28.004086"
       gradientTransform="matrix(1.5314562e-8,-2.3020695,3.4916333,0,-134.49501,152.36132)"
       gradientUnits="userSpaceOnUse" /><radialGradient
       inkscape:collect="always"
       xlink:href="#linearGradient1"
       id="radialGradient3"
       gradientUnits="userSpaceOnUse"
       gradientTransform="matrix(1.5314562e-8,-2.3020695,3.4916333,0,-134.49501,152.36132)"
       cx="42.467018"
       cy="50.681732"
       fx="42.467018"
       fy="50.681732"
       r="28.004086" /></defs><g
     inkscape:label="Warstwa 1"
     inkscape:groupmode="layer"
     id="layer1"
     transform="translate(58.770313,-29.385157)"><rect
       style="fill:none;fill-opacity:1;stroke:none;stroke-width:0.11435;stroke-linecap:round;stroke-miterlimit:4.5"
       id="rect3"
       width="5.8208332"
       height="5.8208332"
       x="-58.770313"
       y="29.385157" /><g
       style="fill:url(#radialGradient2)"
       id="g1"
       transform="matrix(0.07559524,0,0,0.07559524,-57.976872,29.64974)"><path
         d="M 35,70 H 0 V 0 h 35 q 4.4,0 8.2,1.7 a 21.4,21.4 0 0 1 6.6,4.5 Q 52.7,9 54.3,12.8 56,16.7 56,21 A 15.4,15.4 0 0 1 55.7,24.2 17.6,17.6 0 0 1 55.5,25 19.4,19.4 0 0 1 54,29 17,17 0 0 1 51.6,32.4 13.5,13.5 0 0 1 49,34.7 12.5,12.5 0 0 1 48.6,35 q 1.7,1 3,2.5 1.4,1.6 2.4,3.5 a 18.3,18.3 0 0 1 1.5,4 17.4,17.4 0 0 1 0.5,3 15.3,15.3 0 0 1 0,1 q 0,4.4 -1.7,8.2 a 21.4,21.4 0 0 1 -4.5,6.6 Q 47,66.7 43.2,68.4 39.4,70 35,70 Z M 14,14 v 14 h 21 a 7,7 0 0 0 2.3,-0.3 6.6,6.6 0 0 0 0.4,-0.2 Q 39,27 40,26 a 6.9,6.9 0 0 0 1.5,-2.2 Q 42,22.5 42,21 A 7,7 0 0 0 41.6,18.7 6.6,6.6 0 0 0 41.5,18.3 Q 40.9,17 40,16 A 7,7 0 0 0 37.7,14.6 6.9,6.9 0 0 0 35.2,14 7.9,7.9 0 0 0 35,14 Z m 0,28 v 14 h 21 a 7,7 0 0 0 2.3,-0.4 6.6,6.6 0 0 0 0.4,-0.1 Q 39,54.9 40,54 A 7,7 0 0 0 41.5,51.8 6.9,6.9 0 0 0 42,49.2 7.9,7.9 0 0 0 42,49 7,7 0 0 0 41.6,46.7 6.6,6.6 0 0 0 41.5,46.3 Q 40.9,45 40,44 a 7,7 0 0 0 -2.3,-1.5 6.9,6.9 0 0 0 -2.5,-0.6 7.9,7.9 0 0 0 -0.2,0 H 14 Z"
         id="path1"
         style="fill:url(#radialGradient3)" /></g></g><metadata
     id="metadata1"><rdf:RDF><cc:Work
         rdf:about="" /></rdf:RDF></metadata></svg>
